<?xml version="1.0" standalone="no"?>
<!DOCTYPE svg PUBLIC "-//W3C//DTD SVG 20010904//EN"
 "http://www.w3.org/TR/2001/REC-SVG-20010904/DTD/svg10.dtd">
<svg version="1.0" xmlns="http://www.w3.org/2000/svg"
 width="512.000000pt" height="512.000000pt" viewBox="0 0 512.000000 512.000000"
 preserveAspectRatio="xMidYMid meet">
<metadata>
Created by potrace 1.11, written by Peter Selinger 2001-2013
</metadata>
<g transform="translate(0.000000,512.000000) scale(0.100000,-0.100000)"
fill="#000000" stroke="none">
<path d="M2405 4884 c-404 -38 -664 -113 -980 -282 -153 -81 -232 -134 -365
-243 -145 -118 -221 -194 -339 -339 -109 -133 -162 -212 -243 -365 -197 -367
-281 -705 -281 -1120 0 -415 84 -753 281 -1120 81 -153 134 -232 243 -365 118
-145 194 -221 339 -339 133 -109 212 -162 365 -243 367 -197 705 -281 1120
-281 415 0 753 84 1120 281 153 81 232 134 365 243 145 118 221 194 339 339
109 133 162 212 243 365 197 367 281 705 281 1120 0 415 -84 753 -281 1120
-81 153 -134 232 -243 365 -118 145 -194 221 -339 339 -335 274 -729 445
-1167 506 -107 15 -381 27 -458 19z m743 -1074 c334 -127 657 -249 717 -272
61 -23 118 -48 128 -56 13 -12 17 -31 17 -83 0 -92 -8 -99 -116 -99 l-84 0 0
-54 c0 -47 -4 -57 -26 -75 -27 -21 -27 -21 -1259 -21 -1232 0 -1232 0 -1259
21 -22 18 -26 28 -26 75 l0 54 -84 0 c-108 0 -116 7 -116 99 0 52 4 71 18 83
9 8 139 60 287 116 149 56 470 178 715 271 245 94 453 170 463 171 9 0 291
-104 625 -230z m-1218 -1355 l0 -595 200 0 200 0 0 595 0 595 195 0 195 0 0
-595 0 -595 200 0 200 0 0 595 0 595 200 0 200 0 0 -595 0 -595 125 0 c160 0
165 -4 165 -120 l0 -80 -1285 0 -1285 0 0 80 c0 116 5 120 165 120 l125 0 0
595 0 595 200 0 200 0 0 -595z m2007 -911 c55 -41 73 -80 73 -161 0 -41 -5
-83 -10 -94 -11 -19 -38 -19 -1473 -19 -1125 0 -1466 3 -1475 12 -17 17 -16
162 2 196 21 40 60 73 98 82 18 5 646 7 1395 7 l1362 -2 28 -21z"/>
</g>
</svg>
